Chunked-Black.ufo
<glyph name="A" format="1">
  <advance width="722"/>
  <unicode hex="0041"/>
  <outline>
    <contour>
      <point x="707" y="73" type="line"/>
      <point x="637" y="73" type="line"/>
      <point x="460" y="699" type="line"/>
      <point x="194" y="699" type="line"/>
      <point x="194" y="629" type="line"/>
      <point x="268" y="629" type="line"/>
      <point x="99" y="73" type="line"/>
      <point x="20" y="73" type="line"/>
      <point x="20" y="0" type="line"/>
      <point x="271" y="0" type="line"/>
      <point x="271" y="73" type="line"/>
      <point x="193" y="73" type="line"/>
      <point x="256" y="279" type="line"/>
      <point x="481" y="279" type="line"/>
      <point x="539" y="73" type="line"/>
      <point x="445" y="73" type="line"/>
      <point x="445" y="0" type="line"/>
      <point x="707" y="0" type="line"/>
    </contour>
    <contour>
      <point x="360" y="629" type="line"/>
      <point x="382" y="629" type="line"/>
      <point x="459" y="360" type="line"/>
      <point x="279" y="360" type="line"/>
    </contour>
  </outline>
</glyph>
<glyph name="F" format="1">
  <advance width="638"/>
  <unicode hex="0046"/>
  <outline>
    <contour>
      <point x="89" y="629" type="line"/>
      <point x="144" y="629" type="line"/>
      <point x="144" y="73" type="line"/>
      <point x="89" y="73" type="line"/>
      <point x="89" y="0" type="line"/>
      <point x="323" y="0" type="line"/>
      <point x="323" y="73" type="line"/>
      <point x="238" y="73" type="line"/>
      <point x="238" y="314" type="line"/>
      <point x="458" y="314" type="line"/>
      <point x="458" y="395" type="line"/>
      <point x="238" y="395" type="line"/>
      <point x="238" y="629" type="line"/>
      <point x="489" y="629" type="line"/>
      <point x="489" y="531" type="line"/>
      <point x="575" y="531" type="line"/>
      <point x="575" y="699" type="line"/>
      <point x="89" y="699" type="line"/>
    </contour>
  </outline>
</glyph>
<glyph name="G" format="1">
  <advance width="776"/>
  <unicode hex="0047"/>
  <outline>
    <contour>
      <point x="571" y="0" type="line"/>
      <point x="721" y="0" type="line"/>
      <point x="721" y="250" type="line"/>
      <point x="761" y="250" type="line"/>
      <point x="761" y="357" type="line"/>
      <point x="429" y="357" type="line"/>
      <point x="429" y="250" type="line"/>
      <point x="490" y="250" type="line"/>
      <point x="517" y="250" type="line"/>
      <point x="498" y="196"/>
      <point x="451" y="159"/>
      <point x="394" y="159" type="curve" smooth="yes"/>
      <point x="307" y="159"/>
      <point x="257" y="241"/>
      <point x="257" y="343" type="curve" smooth="yes"/>
      <point x="257" y="443"/>
      <point x="313" y="531"/>
      <point x="394" y="531" type="curve" smooth="yes"/>
      <point x="453" y="531"/>
      <point x="513" y="485"/>
      <point x="516" y="404" type="curve"/>
      <point x="687" y="404" type="line"/>
      <point x="687" y="699" type="line"/>
      <point x="522" y="699" type="line"/>
      <point x="522" y="627" type="line"/>
      <point x="506" y="643"/>
      <point x="467" y="711"/>
      <point x="322" y="711" type="curve" smooth="yes"/>
      <point x="166" y="711"/>
      <point x="15" y="561"/>
      <point x="15" y="343" type="curve" smooth="yes"/>
      <point x="15" y="127"/>
      <point x="154" y="-15"/>
      <point x="329" y="-15" type="curve" smooth="yes"/>
      <point x="406" y="-15"/>
      <point x="499" y="26"/>
      <point x="521" y="63" type="curve"/>
    </contour>
  </outline>
</glyph>
<glyph name="I" format="1">
  <advance width="314"/>
  <unicode hex="0049"/>
  <outline>
    <contour>
      <point x="32" y="629" type="line"/>
      <point x="106" y="629" type="line"/>
      <point x="106" y="73" type="line"/>
      <point x="32" y="73" type="line"/>
      <point x="32" y="0" type="line"/>
      <point x="276" y="0" type="line"/>
      <point x="276" y="73" type="line"/>
      <point x="203" y="73" type="line"/>
      <point x="203" y="629" type="line"/>
      <point x="276" y="629" type="line"/>
      <point x="276" y="699" type="line"/>
      <point x="32" y="699" type="line"/>
    </contour>
  </outline>
</glyph>
<glyph name="J" format="1">
  <advance width="350"/>
  <unicode hex="004A"/>
  <outline>
    <contour>
      <point x="31" y="-132" type="line"/>
      <point x="46" y="-138"/>
      <point x="64" y="-143"/>
      <point x="83" y="-143" type="curve" smooth="yes"/>
      <point x="151" y="-143"/>
      <point x="250" y="-90"/>
      <point x="250" y="74" type="curve" smooth="yes"/>
      <point x="250" y="629" type="line"/>
      <point x="328" y="629" type="line"/>
      <point x="328" y="699" type="line"/>
      <point x="76" y="699" type="line"/>
      <point x="76" y="629" type="line"/>
      <point x="154" y="629" type="line"/>
      <point x="154" y="74" type="line" smooth="yes"/>
      <point x="154" y="-16"/>
      <point x="125" y="-70"/>
      <point x="75" y="-70" type="curve" smooth="yes"/>
      <point x="57" y="-70"/>
      <point x="43" y="-67"/>
      <point x="30" y="-61" type="curve"/>
    </contour>
  </outline>
</glyph>
<glyph name="K" format="1">
  <advance width="815"/>
  <unicode hex="004B"/>
  <outline>
    <contour>
      <point x="268" y="699" type="line"/>
      <point x="60" y="699" type="line"/>
      <point x="60" y="629" type="line"/>
      <point x="114" y="629" type="line"/>
      <point x="114" y="73" type="line"/>
      <point x="60" y="73" type="line"/>
      <point x="60" y="0" type="line"/>
      <point x="268" y="0" type="line"/>
      <point x="268" y="73" type="line"/>
      <point x="214" y="73" type="line"/>
      <point x="214" y="255" type="line"/>
      <point x="299" y="331" type="line"/>
      <point x="468" y="73" type="line"/>
      <point x="400" y="73" type="line"/>
      <point x="400" y="0" type="line"/>
      <point x="654" y="0" type="line"/>
      <point x="654" y="73" type="line"/>
      <point x="596" y="73" type="line"/>
      <point x="370" y="405" type="line"/>
      <point x="576" y="629" type="line"/>
      <point x="634" y="629" type="line"/>
      <point x="634" y="699" type="line"/>
      <point x="382" y="699" type="line"/>
      <point x="382" y="629" type="line"/>
      <point x="454" y="629" type="line"/>
      <point x="214" y="366" type="line"/>
      <point x="214" y="629" type="line"/>
      <point x="268" y="629" type="line"/>
    </contour>
  </outline>
</glyph>
<glyph name="O" format="1">
  <advance width="740"/>
  <unicode hex="004F"/>
  <outline>
    <contour>
      <point x="593" y="-18"/>
      <point x="709" y="136"/>
      <point x="706" y="346" type="curve" smooth="yes"/>
      <point x="703" y="571"/>
      <point x="564" y="717"/>
      <point x="362" y="718" type="curve" smooth="yes"/>
      <point x="164" y="719"/>
      <point x="24" y="569"/>
      <point x="24" y="346" type="curve"/>
      <point x="26" y="132"/>
      <point x="178" y="-18"/>
      <point x="362" y="-18" type="curve" smooth="yes"/>
    </contour>
    <contour>
      <point x="268" y="66"/>
      <point x="135" y="160"/>
      <point x="135" y="346" type="curve" smooth="yes"/>
      <point x="135" y="536"/>
      <point x="235" y="640"/>
      <point x="362" y="639" type="curve" smooth="yes"/>
      <point x="492" y="638"/>
      <point x="608" y="509"/>
      <point x="608" y="346" type="curve" smooth="yes"/>
      <point x="608" y="185"/>
      <point x="509" y="66"/>
      <point x="362" y="66" type="curve" smooth="yes"/>
    </contour>
  </outline>
</glyph>
<glyph name="P" format="1">
  <advance width="640"/>
  <unicode hex="0050"/>
  <outline>
    <contour>
      <point x="89" y="629" type="line"/>
      <point x="145" y="629" type="line"/>
      <point x="145" y="73" type="line"/>
      <point x="89" y="73" type="line"/>
      <point x="89" y="0" type="line"/>
      <point x="299" y="0" type="line"/>
      <point x="299" y="73" type="line"/>
      <point x="238" y="73" type="line"/>
      <point x="238" y="314" type="line"/>
      <point x="306" y="314" type="line" smooth="yes"/>
      <point x="504" y="314"/>
      <point x="562" y="396"/>
      <point x="562" y="508" type="curve" smooth="yes"/>
      <point x="562" y="649"/>
      <point x="461" y="699"/>
      <point x="294" y="699" type="curve" smooth="yes"/>
      <point x="89" y="699" type="line"/>
    </contour>
    <contour>
      <point x="329" y="629" type="line" smooth="yes"/>
      <point x="415" y="629"/>
      <point x="461" y="601"/>
      <point x="461" y="520" type="curve" smooth="yes"/>
      <point x="461" y="432"/>
      <point x="432" y="402"/>
      <point x="331" y="402" type="curve" smooth="yes"/>
      <point x="238" y="402" type="line"/>
      <point x="238" y="629" type="line"/>
    </contour>
  </outline>
</glyph>
<glyph name="Q" format="1">
  <advance width="740"/>
  <unicode hex="0051"/>
  <outline>
    <contour>
      <point x="674" y="107" type="line"/>
      <point x="674" y="79"/>
      <point x="689" y="33"/>
      <point x="654" y="33" type="curve" smooth="yes"/>
      <point x="619" y="33"/>
      <point x="600" y="89"/>
      <point x="600" y="180" type="curve" smooth="yes"/>
      <point x="600" y="271"/>
      <point x="471" y="349"/>
      <point x="354" y="349" type="curve" smooth="yes"/>
      <point x="237" y="349"/>
      <point x="163" y="213"/>
      <point x="164" y="93" type="curve"/>
      <point x="259" y="82" type="line" smooth="yes"/>
      <point x="259" y="192"/>
      <point x="310" y="261"/>
      <point x="355" y="261" type="curve" smooth="yes"/>
      <point x="400" y="261"/>
      <point x="417" y="195"/>
      <point x="417" y="111" type="curve" smooth="yes"/>
      <point x="417" y="27"/>
      <point x="439" y="-104"/>
      <point x="591" y="-104" type="curve" smooth="yes"/>
      <point x="743" y="-104"/>
      <point x="739" y="40"/>
      <point x="739" y="107" type="curve"/>
    </contour>
    <component base="O"/>
  </outline>
</glyph>
<glyph name="bracketleft" format="1">
  <advance width="349"/>
  <unicode hex="005B"/>
  <outline>
    <contour>
      <point x="302" y="-81" type="line"/>
      <point x="177" y="-81" type="line"/>
      <point x="177" y="585" type="line"/>
      <point x="302" y="585" type="line"/>
      <point x="302" y="718" type="line"/>
      <point x="32" y="718" type="line"/>
      <point x="32" y="717" type="line"/>
      <point x="31" y="717" type="line"/>
      <point x="31" y="-178" type="line"/>
      <point x="32" y="-178" type="line"/>
      <point x="32" y="-214" type="line"/>
      <point x="302" y="-214" type="line"/>
    </contour>
  </outline>
</glyph>
<glyph name="grave" format="1">
  <advance width="500"/>
  <unicode hex="0060"/>
  <outline>
    <contour>
      <point x="257" y="750" type="line"/>
      <point x="372" y="563" type="line"/>
      <point x="244" y="562" type="line"/>
      <point x="77" y="749" type="line"/>
    </contour>
  </outline>
</glyph>
<glyph name="c" format="1">
  <advance width="510"/>
  <unicode hex="0063"/>
  <outline>
    <contour>
      <point x="483" y="346" type="line"/>
      <point x="483" y="511" type="line"/>
      <point x="429" y="511" type="line"/>
      <point x="414" y="463" type="line"/>
      <point x="399" y="483"/>
      <point x="347" y="520"/>
      <point x="252" y="520" type="curve" smooth="yes"/>
      <point x="138" y="520"/>
      <point x="32" y="413"/>
      <point x="32" y="253" type="curve" smooth="yes"/>
      <point x="32" y="75"/>
      <point x="146" y="-14"/>
      <point x="278" y="-14" type="curve" smooth="yes"/>
      <point x="374" y="-14"/>
      <point x="454" y="37"/>
      <point x="496" y="88" type="curve"/>
      <point x="446" y="153" type="line"/>
      <point x="417" y="117"/>
      <point x="375" y="71"/>
      <point x="282" y="71" type="curve" smooth="yes"/>
      <point x="182" y="71"/>
      <point x="126" y="131"/>
      <point x="126" y="251" type="curve" smooth="yes"/>
      <point x="126" y="374"/>
      <point x="201" y="454"/>
      <point x="291" y="454" type="curve" smooth="yes"/>
      <point x="344" y="454"/>
      <point x="402" y="394"/>
      <point x="403" y="346" type="curve"/>
    </contour>
  </outline>
</glyph>
<glyph name="d" format="1">
  <advance width="656"/>
  <unicode hex="0064"/>
  <outline>
    <contour>
      <point x="472" y="472" type="line"/>
      <point x="453" y="484"/>
      <point x="406" y="510"/>
      <point x="319" y="510" type="curve" smooth="yes"/>
      <point x="166" y="510"/>
      <point x="72" y="411"/>
      <point x="72" y="255" type="curve" smooth="yes"/>
      <point x="72" y="116"/>
      <point x="170" y="-9"/>
      <point x="311" y="-9" type="curve" smooth="yes"/>
      <point x="423" y="-9"/>
      <point x="459" y="55"/>
      <point x="472" y="67" type="curve"/>
      <point x="490" y="0" type="line"/>
      <point x="619" y="0" type="line"/>
      <point x="619" y="67" type="line"/>
      <point x="559" y="67" type="line"/>
      <point x="559" y="750" type="line"/>
      <point x="430" y="750" type="line"/>
      <point x="430" y="687" type="line"/>
      <point x="472" y="687" type="line"/>
    </contour>
    <contour>
      <point x="167" y="373"/>
      <point x="234" y="439"/>
      <point x="331" y="439" type="curve" smooth="yes"/>
      <point x="416" y="439"/>
      <point x="481" y="366"/>
      <point x="481" y="272" type="curve"/>
      <point x="486" y="164"/>
      <point x="425" y="67"/>
      <point x="333" y="67" type="curve" smooth="yes"/>
      <point x="232" y="67"/>
      <point x="167" y="138"/>
      <point x="167" y="244" type="curve" smooth="yes"/>
    </contour>
  </outline>
</glyph>
<glyph name="i" format="1">
  <advance width="230"/>
  <unicode hex="0069"/>
  <outline>
    <contour>
      <point x="214" y="67" type="line"/>
      <point x="154" y="67" type="line"/>
      <point x="154" y="500" type="line"/>
      <point x="25" y="500" type="line"/>
      <point x="25" y="436" type="line"/>
      <point x="67" y="436" type="line"/>
      <point x="67" y="67" type="line"/>
      <point x="25" y="67" type="line"/>
      <point x="25" y="0" type="line"/>
      <point x="214" y="0" type="line"/>
    </contour>
    <contour>
      <point x="42" y="636"/>
      <point x="68" y="605"/>
      <point x="103" y="605" type="curve"/>
      <point x="144" y="605"/>
      <point x="166" y="631"/>
      <point x="166" y="663" type="curve"/>
      <point x="166" y="689"/>
      <point x="143" y="721"/>
      <point x="103" y="721" type="curve"/>
      <point x="64" y="721"/>
      <point x="42" y="689"/>
      <point x="42" y="663" type="curve"/>
    </contour>
  </outline>
</glyph>
<glyph name="k" format="1">
  <advance width="589"/>
  <unicode hex="006B"/>
  <outline>
    <contour>
      <point x="238" y="0" type="line"/>
      <point x="238" y="68" type="line"/>
      <point x="170" y="68" type="line"/>
      <point x="170" y="209" type="line" smooth="yes"/>
      <point x="244" y="269" type="line"/>
      <point x="389" y="67" type="line"/>
      <point x="333" y="67" type="line"/>
      <point x="334" y="0" type="line"/>
      <point x="565" y="0" type="line"/>
      <point x="564" y="67" type="line"/>
      <point x="493" y="67" type="line"/>
      <point x="317" y="322" type="line"/>
      <point x="459" y="427" type="line"/>
      <point x="528" y="427" type="line"/>
      <point x="528" y="499" type="line"/>
      <point x="298" y="499" type="line"/>
      <point x="298" y="427" type="line"/>
      <point x="362" y="427" type="line"/>
      <point x="171" y="295" type="line"/>
      <point x="171" y="750" type="line"/>
      <point x="38" y="750" type="line"/>
      <point x="38" y="676" type="line"/>
      <point x="87" y="676" type="line"/>
      <point x="87" y="67" type="line"/>
      <point x="38" y="67" type="line"/>
      <point x="38" y="0" type="line"/>
    </contour>
  </outline>
</glyph>
<glyph name="n" format="1">
  <advance width="647"/>
  <unicode hex="006E"/>
  <outline>
    <contour>
      <point x="284" y="67" type="line"/>
      <point x="200" y="67" type="line"/>
      <point x="200" y="312" type="line" smooth="yes"/>
      <point x="200" y="371"/>
      <point x="247" y="431"/>
      <point x="339" y="431" type="curve" smooth="yes"/>
      <point x="426" y="431"/>
      <point x="453" y="384"/>
      <point x="453" y="289" type="curve" smooth="yes"/>
      <point x="453" y="67" type="line"/>
      <point x="380" y="67" type="line"/>
      <point x="380" y="0" type="line"/>
      <point x="622" y="0" type="line"/>
      <point x="622" y="67" type="line"/>
      <point x="538" y="67" type="line"/>
      <point x="538" y="315" type="line" smooth="yes"/>
      <point x="538" y="456"/>
      <point x="455" y="518"/>
      <point x="363" y="518" type="curve" smooth="yes"/>
      <point x="311" y="518"/>
      <point x="240" y="485"/>
      <point x="206" y="438" type="curve"/>
      <point x="183" y="500" type="line"/>
      <point x="36" y="500" type="line"/>
      <point x="36" y="425" type="line"/>
      <point x="116" y="425" type="line"/>
      <point x="116" y="67" type="line"/>
      <point x="36" y="67" type="line"/>
      <point x="36" y="0" type="line"/>
      <point x="284" y="0" type="line"/>
    </contour>
  </outline>
</glyph>
<glyph name="s" format="1">
  <advance width="508"/>
  <unicode hex="0073"/>
  <outline>
    <contour>
      <point x="85" y="0" type="line"/>
      <point x="94" y="61" type="line"/>
      <point x="116" y="23"/>
      <point x="194" y="-15"/>
      <point x="291" y="-15" type="curve" smooth="yes"/>
      <point x="380" y="-15"/>
      <point x="466" y="33"/>
      <point x="466" y="127" type="curve" smooth="yes"/>
      <point x="466" y="232"/>
      <point x="387" y="261"/>
      <point x="318" y="287" type="curve" smooth="yes"/>
      <point x="259" y="309"/>
      <point x="123" y="336"/>
      <point x="123" y="397" type="curve" smooth="yes"/>
      <point x="123" y="427"/>
      <point x="157" y="447"/>
      <point x="237" y="447" type="curve" smooth="yes"/>
      <point x="315" y="447"/>
      <point x="389" y="382"/>
      <point x="389" y="340" type="curve"/>
      <point x="450" y="340" type="line"/>
      <point x="450" y="500" type="line"/>
      <point x="396" y="500" type="line"/>
      <point x="388" y="434" type="line"/>
      <point x="369" y="477"/>
      <point x="278" y="516"/>
      <point x="193" y="516" type="curve" smooth="yes"/>
      <point x="128" y="516"/>
      <point x="31" y="469"/>
      <point x="31" y="367" type="curve" smooth="yes"/>
      <point x="31" y="273"/>
      <point x="118" y="258"/>
      <point x="181" y="234" type="curve" smooth="yes"/>
      <point x="247" y="209"/>
      <point x="371" y="181"/>
      <point x="371" y="136" type="curve" smooth="yes"/>
      <point x="371" y="71"/>
      <point x="315" y="59"/>
      <point x="248" y="59" type="curve" smooth="yes"/>
      <point x="178" y="59"/>
      <point x="94" y="110"/>
      <point x="94" y="163" type="curve"/>
      <point x="27" y="163" type="line"/>
      <point x="27" y="0" type="line"/>
    </contour>
  </outline>
</glyph>
<glyph name="t" format="1">
  <advance width="323"/>
  <unicode hex="0074"/>
  <outline>
    <contour>
      <point x="284" y="6"/>
      <point x="248" y="-13"/>
      <point x="205" y="-13" type="curve" smooth="yes"/>
      <point x="137" y="-13"/>
      <point x="97" y="34"/>
      <point x="97" y="152" type="curve" smooth="yes"/>
      <point x="97" y="425" type="line"/>
      <point x="11" y="425" type="line"/>
      <point x="11" y="500" type="line"/>
      <point x="97" y="500" type="line"/>
      <point x="97" y="650" type="line"/>
      <point x="182" y="651" type="line"/>
      <point x="182" y="500" type="line"/>
      <point x="303" y="500" type="line"/>
      <point x="303" y="425" type="line"/>
      <point x="182" y="425" type="line"/>
      <point x="182" y="124" type="line" smooth="yes"/>
      <point x="182" y="90"/>
      <point x="204" y="64"/>
      <point x="224" y="64" type="curve" smooth="yes"/>
      <point x="260" y="64"/>
      <point x="284" y="80"/>
      <point x="284" y="80" type="curve"/>
      <point x="284" y="6" type="line"/>
    </contour>
  </outline>
</glyph>
<glyph name="Aring" format="1">
  <advance width="835"/>
  <unicode hex="00C5"/>
  <outline>
    <contour>
      <point x="294" y="767"/>
      <point x="337" y="724"/>
      <point x="391" y="724" type="curve"/>
      <point x="445" y="724"/>
      <point x="490" y="767"/>
      <point x="490" y="821" type="curve"/>
      <point x="490" y="875"/>
      <point x="445" y="920"/>
      <point x="391" y="920" type="curve"/>
      <point x="337" y="920"/>
      <point x="294" y="875"/>
      <point x="294" y="821" type="curve"/>
    </contour>
    <contour>
      <point x="431" y="800"/>
      <point x="413" y="782"/>
      <point x="391" y="782" type="curve"/>
      <point x="369" y="782"/>
      <point x="352" y="800"/>
      <point x="352" y="822" type="curve"/>
      <point x="352" y="844"/>
      <point x="369" y="861"/>
      <point x="391" y="861" type="curve"/>
      <point x="413" y="861"/>
      <point x="431" y="844"/>
      <point x="431" y="822" type="curve"/>
    </contour>
    <component base="A" xOffset="24"/>
  </outline>
</glyph>
<glyph name="Odieresis" format="1">
  <advance width="740"/>
  <unicode hex="00D6"/>
  <outline>
    <contour>
      <point x="388" y="782"/>
      <point x="427" y="743"/>
      <point x="476" y="743" type="curve"/>
      <point x="526" y="743"/>
      <point x="567" y="782"/>
      <point x="567" y="832" type="curve"/>
      <point x="567" y="881"/>
      <point x="526" y="922"/>
      <point x="476" y="922" type="curve"/>
      <point x="427" y="922"/>
      <point x="388" y="881"/>
      <point x="388" y="832" type="curve"/>
    </contour>
    <contour>
      <point x="180" y="782"/>
      <point x="219" y="743"/>
      <point x="268" y="743" type="curve"/>
      <point x="318" y="743"/>
      <point x="359" y="782"/>
      <point x="359" y="832" type="curve"/>
      <point x="359" y="881"/>
      <point x="318" y="922"/>
      <point x="268" y="922" type="curve"/>
      <point x="219" y="922"/>
      <point x="180" y="881"/>
      <point x="180" y="832" type="curve"/>
    </contour>
    <component base="O"/>
  </outline>
</glyph>
<glyph name="adieresis" format="1">
  <advance width="600"/>
  <unicode hex="00E4"/>
  <outline>
    <contour>
      <point x="297" y="594"/>
      <point x="336" y="555"/>
      <point x="385" y="555" type="curve"/>
      <point x="435" y="555"/>
      <point x="476" y="594"/>
      <point x="476" y="644" type="curve"/>
      <point x="476" y="693"/>
      <point x="435" y="734"/>
      <point x="385" y="734" type="curve"/>
      <point x="336" y="734"/>
      <point x="297" y="693"/>
      <point x="297" y="644" type="curve"/>
    </contour>
    <contour>
      <point x="89" y="594"/>
      <point x="128" y="555"/>
      <point x="177" y="555" type="curve"/>
      <point x="227" y="555"/>
      <point x="268" y="594"/>
      <point x="268" y="644" type="curve"/>
      <point x="268" y="693"/>
      <point x="227" y="734"/>
      <point x="177" y="734" type="curve"/>
      <point x="128" y="734"/>
      <point x="89" y="693"/>
      <point x="89" y="644" type="curve"/>
    </contour>
    <component base="a"/>
  </outline>
</glyph>
<glyph name="iacute" format="1">
  <advance width="330"/>
  <unicode hex="00ED"/>
  <outline>
    <contour>
      <point x="305" y="131" type="line"/>
      <point x="257" y="131" type="line"/>
      <point x="257" y="500" type="line"/>
      <point x="25" y="500" type="line" smooth="yes"/>
      <point x="25" y="370" type="line"/>
      <point x="67" y="370" type="line"/>
      <point x="67" y="131" type="line"/>
      <point x="25" y="131" type="line"/>
      <point x="25" y="0" type="line"/>
      <point x="305" y="0" type="line"/>
    </contour>
    <component base="acute" xOffset="-58"/>
  </outline>
</glyph>
<glyph name="odieresis" format="1">
  <advance width="574"/>
  <unicode hex="00F6"/>
  <outline>
    <contour>
      <point x="89" y="594"/>
      <point x="128" y="555"/>
      <point x="177" y="555" type="curve"/>
      <point x="227" y="555"/>
      <point x="268" y="594"/>
      <point x="268" y="644" type="curve"/>
      <point x="268" y="693"/>
      <point x="227" y="734"/>
      <point x="177" y="734" type="curve"/>
      <point x="128" y="734"/>
      <point x="89" y="693"/>
      <point x="89" y="644" type="curve"/>
    </contour>
    <contour>
      <point x="297" y="594"/>
      <point x="336" y="555"/>
      <point x="385" y="555" type="curve"/>
      <point x="435" y="555"/>
      <point x="476" y="594"/>
      <point x="476" y="644" type="curve"/>
      <point x="476" y="693"/>
      <point x="435" y="734"/>
      <point x="385" y="734" type="curve"/>
      <point x="336" y="734"/>
      <point x="297" y="693"/>
      <point x="297" y="644" type="curve"/>
    </contour>
    <component base="o"/>
  </outline>
</glyph>
